<svg class="img-fluid" id="outputsvg" xmlns="http://www.w3.org/2000/svg" style="transform: matrix(0.769231, 0, 0, 0.769231, 0, 0); transform-origin: 50% 50%; cursor: move; max-height: none;" width="174" height="298" viewBox="0 0 1740 2980"><g id="l5xSNhvimVoiMAQnHPRLUtz" fill="rgb(0,0,0)" style="transform: none;"><g><path id="pw4yddRuS" d="M495 1801 l-154 -310 153 -313 153 -313 322 5 323 5 149 307 149 307 -150 308 -150 308 -320 3 -320 2 -155 -309z m206 -140 c-45 -88 -81 -165 -81 -171 0 -5 31 -72 69 -149 85 -171 96 -201 49 -141 -18 25 -63 83 -98 128 -36 46 -78 101 -93 123 l-28 39 23 33 c43 61 233 305 236 302 2 -2 -33 -75 -77 -164z m510 102 c30 -37 91 -113 137 -167 45 -55 81 -103 80 -108 -5 -12 -263 -326 -266 -323 -2 2 33 75 77 162 l79 159 -70 139 c-70 138 -101 205 -95 205 2 0 28 -30 58 -67z"></path></g></g></svg>