<svg width="34" height="34" viewBox="0 0 34 34" fill="none" xmlns="http://www.w3.org/2000/svg">
<path fill-rule="evenodd" clip-rule="evenodd" d="M4.58953 17.3867C4.37315 16.9856 4.37315 16.4991 4.58953 16.0981C7.19708 11.2758 12.0139 7.0957 16.8307 7.0957C21.6475 7.0957 26.4643 11.2758 29.0718 16.0995C29.2882 16.5005 29.2882 16.987 29.0718 17.3881C26.4643 22.2104 21.6475 26.3905 16.8307 26.3905C12.0139 26.3905 7.19708 22.2104 4.58953 17.3867Z" stroke="#828282" stroke-width="2.06729" stroke-linecap="round" stroke-linejoin="round"/>
<path d="M19.754 13.8194C21.3686 15.434 21.3686 18.0519 19.754 19.6666C18.1393 21.2812 15.5214 21.2812 13.9068 19.6666C12.2921 18.0519 12.2921 15.434 13.9068 13.8194C15.5214 12.2047 18.1393 12.2047 19.754 13.8194" stroke="#828282" stroke-width="1.96889" stroke-linecap="round" stroke-linejoin="round"/>
</svg>
